<?xml version="1.0" encoding="utf-8"?>
<!-- Generator: Adobe Illustrator 19.2.1, SVG Export Plug-In . SVG Version: 6.00 Build 0)  -->
<svg version="1.1" id="Layer_1" xmlns="http://www.w3.org/2000/svg" xmlns:xlink="http://www.w3.org/1999/xlink" x="0px" y="0px"
	 viewBox="0 0 27.1 21" style="enable-background:new 0 0 27.1 21;" xml:space="preserve">
<style type="text/css">
	.st0{fill:#999999;}
	.st1{fill:#666666;}
	.st2{clip-path:url(#SVGID_2_);fill:#999999;}
	.st3{clip-path:url(#SVGID_4_);fill:#999999;}
	.st4{clip-path:url(#SVGID_4_);fill:#666666;}
	.st5{clip-path:url(#SVGID_6_);fill:#666666;}
	.st6{clip-path:url(#SVGID_8_);fill:#999999;}
	.st7{clip-path:url(#SVGID_10_);fill:#999999;}
	.st8{clip-path:url(#SVGID_12_);fill:#999999;}
	.st9{fill:#336699;}
	.st10{fill:#1C3663;}
	.st11{fill:#8BC53F;}
	.st12{fill:#FFFFFF;}
	.st13{clip-path:url(#SVGID_14_);fill:#FFFFFF;}
	.st14{clip-path:url(#SVGID_14_);fill:#C5C7C9;}
	.st15{clip-path:url(#SVGID_14_);fill:#231F20;}
	.st16{fill:#231F20;}
	.st17{clip-path:url(#SVGID_16_);fill:#231F20;}
	.st18{clip-path:url(#SVGID_18_);fill:#A6A8AB;}
	.st19{fill:#A6A8AB;}
	.st20{clip-path:url(#SVGID_20_);fill:#A6A8AB;}
	.st21{clip-path:url(#SVGID_22_);fill:#A6A8AB;}
	.st22{clip-path:url(#SVGID_22_);fill:#FFC10E;}
	.st23{fill:#FFC10E;}
	.st24{fill:#FF5F00;}
	.st25{fill:#EB001B;}
	.st26{fill:#F79E1B;}
	.st27{fill:#00589F;}
	.st28{fill:#F9A51A;}
</style>
<g>
	<g>
		<g>
			<path id="XMLID_1775_" d="M4.9,20.9v-1.4c0-0.5-0.3-0.9-0.9-0.9c-0.3,0-0.6,0.1-0.8,0.4c-0.2-0.2-0.4-0.4-0.7-0.4
				c-0.2,0-0.5,0.1-0.7,0.3v-0.3H1.4v2.2h0.5v-1.2c0-0.4,0.2-0.6,0.5-0.6c0.3,0,0.5,0.2,0.5,0.6v1.2h0.5v-1.2c0-0.4,0.2-0.6,0.5-0.6
				c0.3,0,0.5,0.2,0.5,0.6v1.2H4.9z M12.2,18.7h-0.8V18h-0.5v0.7h-0.5v0.4h0.5v1c0,0.5,0.2,0.8,0.8,0.8c0.2,0,0.5-0.1,0.6-0.2
				l-0.1-0.4c-0.1,0.1-0.3,0.1-0.4,0.1c-0.2,0-0.3-0.1-0.3-0.4v-1h0.8V18.7z M16.3,18.7c-0.3,0-0.5,0.1-0.6,0.3v-0.3h-0.5v2.2h0.5
				v-1.2c0-0.4,0.2-0.6,0.5-0.6c0.1,0,0.2,0,0.3,0.1l0.1-0.5C16.5,18.7,16.4,18.7,16.3,18.7L16.3,18.7z M10,18.9
				c-0.2-0.2-0.6-0.2-0.9-0.2c-0.6,0-0.9,0.3-0.9,0.7C8.2,19.7,8.5,20,9,20l0.2,0c0.3,0,0.4,0.1,0.4,0.2c0,0.2-0.2,0.3-0.5,0.3
				c-0.3,0-0.6-0.1-0.7-0.2l-0.2,0.4c0.3,0.2,0.6,0.3,1,0.3c0.6,0,1-0.3,1-0.7c0-0.4-0.3-0.6-0.8-0.7l-0.2,0c-0.2,0-0.4-0.1-0.4-0.2
				c0-0.2,0.2-0.3,0.4-0.3c0.3,0,0.6,0.1,0.7,0.2L10,18.9z M23,18.7c-0.3,0-0.5,0.1-0.6,0.3v-0.3h-0.5v2.2h0.5v-1.2
				c0-0.4,0.2-0.6,0.5-0.6c0.1,0,0.2,0,0.3,0.1l0.1-0.5C23.2,18.7,23.1,18.7,23,18.7L23,18.7z M16.8,19.8c0,0.7,0.5,1.2,1.2,1.2
				c0.3,0,0.6-0.1,0.8-0.3l-0.2-0.4c-0.2,0.1-0.4,0.2-0.6,0.2c-0.4,0-0.7-0.3-0.7-0.7c0-0.4,0.3-0.7,0.7-0.7c0.2,0,0.4,0.1,0.6,0.2
				l0.2-0.4c-0.2-0.2-0.5-0.3-0.8-0.3C17.2,18.7,16.8,19.2,16.8,19.8L16.8,19.8z M21.3,19.8v-1.1h-0.5V19c-0.2-0.2-0.4-0.3-0.7-0.3
				c-0.6,0-1.1,0.5-1.1,1.2c0,0.7,0.5,1.2,1.1,1.2c0.3,0,0.5-0.1,0.7-0.3v0.3h0.5V19.8z M19.5,19.8c0-0.4,0.3-0.7,0.7-0.7
				c0.4,0,0.7,0.3,0.7,0.7c0,0.4-0.3,0.7-0.7,0.7C19.8,20.5,19.5,20.2,19.5,19.8L19.5,19.8z M13.7,18.7c-0.7,0-1.1,0.5-1.1,1.2
				c0,0.7,0.5,1.2,1.1,1.2c0.3,0,0.6-0.1,0.9-0.3l-0.2-0.4c-0.2,0.1-0.4,0.2-0.6,0.2c-0.3,0-0.6-0.1-0.7-0.5h1.7c0-0.1,0-0.1,0-0.2
				C14.7,19.1,14.3,18.7,13.7,18.7L13.7,18.7z M13.7,19.1c0.3,0,0.5,0.2,0.6,0.5h-1.2C13.1,19.3,13.3,19.1,13.7,19.1L13.7,19.1z
				 M25.8,19.8v-2h-0.5V19c-0.2-0.2-0.4-0.3-0.7-0.3c-0.6,0-1.1,0.5-1.1,1.2c0,0.7,0.5,1.2,1.1,1.2c0.3,0,0.5-0.1,0.7-0.3v0.3h0.5
				V19.8z M24,19.8c0-0.4,0.3-0.7,0.7-0.7c0.4,0,0.7,0.3,0.7,0.7c0,0.4-0.3,0.7-0.7,0.7C24.2,20.5,24,20.2,24,19.8L24,19.8z
				 M7.7,19.8v-1.1H7.2V19c-0.2-0.2-0.4-0.3-0.7-0.3c-0.6,0-1.1,0.5-1.1,1.2c0,0.7,0.5,1.2,1.1,1.2c0.3,0,0.5-0.1,0.7-0.3v0.3h0.5
				V19.8z M5.9,19.8c0-0.4,0.3-0.7,0.7-0.7c0.4,0,0.7,0.3,0.7,0.7c0,0.4-0.3,0.7-0.7,0.7C6.1,20.5,5.9,20.2,5.9,19.8z"/>
		</g>
		<g id="XMLID_328_">
			<rect x="9.9" y="1.8" class="st24" width="7.3" height="13.2"/>
			<path id="XMLID_330_" class="st25" d="M10.4,8.4c0-2.7,1.2-5,3.2-6.6C12.1,0.7,10.3,0,8.4,0C3.8,0,0,3.7,0,8.4
				c0,4.6,3.7,8.4,8.4,8.4c2,0,3.7-0.7,5.2-1.8C11.6,13.4,10.4,11,10.4,8.4z"/>
			<path class="st26" d="M27.1,8.4c0,4.6-3.7,8.4-8.4,8.4c-2,0-3.7-0.7-5.2-1.8c1.9-1.5,3.2-3.9,3.2-6.6s-1.2-5-3.2-6.6
				C15,0.7,16.8,0,18.7,0C23.3,0,27.1,3.7,27.1,8.4z"/>
		</g>
	</g>
</g>
</svg>
