<?xml version="1.0" encoding="utf-8"?>
<!-- Generator: Adobe Illustrator 19.2.1, SVG Export Plug-In . SVG Version: 6.00 Build 0)  -->
<svg version="1.1" id="Layer_1" xmlns="http://www.w3.org/2000/svg" xmlns:xlink="http://www.w3.org/1999/xlink" x="0px" y="0px"
	 viewBox="0 0 32 21" style="enable-background:new 0 0 32 21;" xml:space="preserve">
<style type="text/css">
	.st0{fill:#1479BE;}
	.st1{fill:#FFFFFF;}
	.st2{fill:#047CC0;}
</style>
<g>
	<g>
		<path class="st0" d="M26.2,0.4H6v20.3h20.2V14c0.1-0.1,0.1-0.3,0.1-0.4c0-0.2,0-0.3-0.1-0.4V0.4z"/>
		<path class="st1" d="M7.9,9.2L7.5,8.3L7.1,9.2H7.9z M16.4,8.8c-0.1,0-0.2,0-0.3,0h-0.7V8.4h0.7c0.1,0,0.2,0,0.3,0
			c0.1,0,0.1,0.1,0.1,0.2C16.5,8.7,16.5,8.8,16.4,8.8 M21.3,9.2l-0.4-0.9l-0.4,0.9H21.3z M12.2,10.2h-0.6l0-1.9l-0.8,1.9h-0.5
			L9.4,8.4v1.9H8.3L8.1,9.7H6.9l-0.2,0.5H6l1-2.4h0.8l1,2.2V7.9h0.9l0.7,1.6l0.7-1.6h0.9V10.2z M14.5,10.2h-1.9V7.9h1.9v0.5h-1.3
			v0.4h1.3v0.5l-1.3,0v0.5h1.3V10.2z M17.2,8.5c0,0.4-0.3,0.6-0.4,0.6c0.1,0,0.2,0.1,0.3,0.2c0.1,0.1,0.1,0.2,0.1,0.4v0.5h-0.6
			l0-0.3c0-0.1,0-0.3-0.1-0.5c-0.1-0.1-0.2-0.1-0.4-0.1h-0.6v0.9h-0.6V7.9h1.3c0.3,0,0.5,0,0.7,0.1C17,8.1,17.2,8.2,17.2,8.5
			 M18.1,10.2h-0.6V7.9h0.6V10.2z M24.8,10.2H24l-1.1-1.8l0,1.8h-1.2l-0.2-0.5h-1.2l-0.2,0.5h-0.7c-0.3,0-0.6-0.1-0.8-0.3
			c-0.2-0.2-0.3-0.5-0.3-0.9c0-0.4,0.1-0.7,0.3-0.9c0.2-0.2,0.5-0.3,0.9-0.3h0.5v0.5h-0.5c-0.2,0-0.3,0-0.4,0.1
			c-0.1,0.1-0.2,0.3-0.2,0.5c0,0.3,0,0.4,0.2,0.6c0.1,0.1,0.2,0.1,0.4,0.1h0.3l0.8-1.9h0.8l1,2.2V7.9h0.9l1,1.7V7.9h0.6V10.2z
			 M6,10.7h1l0.2-0.5h0.5l0.2,0.5h1.9v-0.4l0.2,0.4h1l0.2-0.4v0.4h4.7l0-0.9H16c0.1,0,0.1,0,0.1,0.1v0.8h2.5v-0.2
			c0.2,0.1,0.5,0.2,0.9,0.2h1l0.2-0.5h0.5l0.2,0.5h2v-0.5l0.3,0.5h1.6V7.4h-1.6v0.4l-0.2-0.4h-1.6v0.4l-0.2-0.4h-2.2
			c-0.4,0-0.7,0.1-0.9,0.2V7.4H17v0.2c-0.2-0.1-0.4-0.2-0.6-0.2h-5.5l-0.4,0.9l-0.4-0.9H8.4v0.4L8.2,7.4H6.7L6,9V10.7z"/>
		<path class="st1" d="M26.2,12.5h-1c-0.1,0-0.2,0-0.2,0c-0.1,0-0.1,0.1-0.1,0.2c0,0.1,0.1,0.2,0.1,0.2c0.1,0,0.1,0,0.2,0l0.3,0
			c0.3,0,0.5,0.1,0.6,0.2c0,0,0,0,0.1,0.1V12.5z M26.2,14c-0.1,0.2-0.4,0.3-0.8,0.3h-1.1v-0.5h1.1c0.1,0,0.2,0,0.2-0.1
			c0,0,0.1-0.1,0.1-0.2c0-0.1,0-0.1-0.1-0.2c0,0-0.1-0.1-0.2-0.1c-0.5,0-1.2,0-1.2-0.7c0-0.3,0.2-0.7,0.8-0.7h1.1v-0.5h-1.1
			c-0.3,0-0.5,0.1-0.7,0.2v-0.2h-1.6c-0.2,0-0.5,0.1-0.7,0.2l0-0.2h-2.8v0.2c-0.2-0.2-0.6-0.2-0.8-0.2h-1.8v0.2
			c-0.2-0.2-0.6-0.2-0.8-0.2h-2L13.5,12l-0.4-0.5H10v3.3h3l0.5-0.5l0.5,0.5l1.9,0V14H16c0.2,0,0.5,0,0.8-0.1v0.9h1.5v-0.9h0.1
			c0.1,0,0.1,0,0.1,0.1v0.8h4.6c0.3,0,0.6-0.1,0.8-0.2v0.2h1.5c0.3,0,0.6,0,0.8-0.2V14z M24,13.1c0.1,0.1,0.2,0.3,0.2,0.5
			c0,0.5-0.3,0.8-0.9,0.8h-1.1v-0.5h1.1c0.1,0,0.2,0,0.2-0.1c0,0,0.1-0.1,0.1-0.2c0-0.1,0-0.1-0.1-0.2c0,0-0.1-0.1-0.2-0.1
			c-0.5,0-1.2,0-1.2-0.7c0-0.3,0.2-0.7,0.8-0.7H24v0.5h-1c-0.1,0-0.2,0-0.2,0c-0.1,0-0.1,0.1-0.1,0.2c0,0.1,0.1,0.2,0.1,0.2
			c0.1,0,0.1,0,0.2,0l0.3,0C23.6,12.9,23.8,12.9,24,13.1 M18.8,12.9c-0.1,0-0.2,0-0.3,0h-0.7v-0.5h0.7c0.1,0,0.2,0,0.3,0
			c0.1,0,0.1,0.1,0.1,0.2C19,12.8,18.9,12.9,18.8,12.9 M19.2,13.2c0.1,0,0.2,0.1,0.3,0.2c0.1,0.1,0.1,0.2,0.1,0.4v0.5H19V14
			c0-0.1,0-0.4-0.1-0.5c-0.1-0.1-0.2-0.1-0.4-0.1h-0.6v0.9h-0.6V12h1.3c0.3,0,0.5,0,0.7,0.1c0.2,0.1,0.3,0.3,0.3,0.5
			C19.6,13,19.3,13.2,19.2,13.2 M19.9,12h1.9v0.5h-1.3v0.4h1.3v0.5h-1.3v0.5l1.3,0v0.5h-1.9V12z M16.1,13h-0.7v-0.6h0.7
			c0.2,0,0.3,0.1,0.3,0.3C16.4,12.9,16.3,13,16.1,13 M14.8,14.1l-0.9-1l0.9-0.9V14.1z M12.5,13.8h-1.4v-0.5h1.2v-0.5h-1.2v-0.4h1.4
			l0.6,0.7L12.5,13.8z M17,12.7c0,0.7-0.5,0.8-1,0.8h-0.7v0.8h-1.1l-0.7-0.8l-0.7,0.8h-2.2V12h2.3l0.7,0.8l0.7-0.8h1.8
			C16.5,12,17,12.1,17,12.7"/>
		<path class="st2" d="M5.7,20.3c0,0.2-0.2,0.4-0.4,0.4c-0.2,0-0.4-0.2-0.4-0.4c0-0.2,0.2-0.4,0.4-0.4C5.6,19.9,5.7,20,5.7,20.3
			 M5.8,20.3c0-0.3-0.2-0.5-0.5-0.5c-0.3,0-0.5,0.2-0.5,0.5c0,0.3,0.2,0.5,0.5,0.5C5.6,20.7,5.8,20.5,5.8,20.3 M5.4,20.2
			C5.4,20.1,5.4,20.1,5.4,20.2l-0.2-0.1v0.1L5.4,20.2C5.4,20.2,5.4,20.2,5.4,20.2 M5.5,20.5L5.5,20.5c-0.1,0-0.1-0.1-0.1-0.1
			c0,0,0-0.1-0.1-0.1H5.2l0,0.2H5.2V20h0.2c0.1,0,0.1,0,0.1,0.1c0,0.1,0,0.1,0,0.1c0,0,0,0,0,0.1L5.5,20.5
			C5.5,20.4,5.5,20.4,5.5,20.5L5.5,20.5z"/>
	</g>
</g>
</svg>
