<?xml version="1.0" encoding="utf-8"?>
<!-- Generator: Adobe Illustrator 19.2.1, SVG Export Plug-In . SVG Version: 6.00 Build 0)  -->
<svg version="1.1" id="Layer_1" xmlns="http://www.w3.org/2000/svg" xmlns:xlink="http://www.w3.org/1999/xlink" x="0px" y="0px"
	 viewBox="0 0 32.6 21" style="enable-background:new 0 0 32.6 21;" xml:space="preserve">
<style type="text/css">
	.st0{fill:#999999;}
	.st1{fill:#666666;}
	.st2{clip-path:url(#SVGID_2_);fill:#999999;}
	.st3{clip-path:url(#SVGID_4_);fill:#999999;}
	.st4{clip-path:url(#SVGID_4_);fill:#666666;}
	.st5{clip-path:url(#SVGID_6_);fill:#666666;}
	.st6{clip-path:url(#SVGID_8_);fill:#999999;}
	.st7{clip-path:url(#SVGID_10_);fill:#999999;}
	.st8{clip-path:url(#SVGID_12_);fill:#999999;}
	.st9{fill:#336699;}
	.st10{fill:#1C3663;}
	.st11{fill:#8BC53F;}
	.st12{fill:#FFFFFF;}
	.st13{clip-path:url(#SVGID_14_);fill:#FFFFFF;}
	.st14{clip-path:url(#SVGID_14_);fill:#C5C7C9;}
	.st15{clip-path:url(#SVGID_14_);fill:#231F20;}
	.st16{fill:#231F20;}
	.st17{clip-path:url(#SVGID_16_);fill:#231F20;}
	.st18{clip-path:url(#SVGID_18_);fill:#A6A8AB;}
	.st19{fill:#A6A8AB;}
	.st20{clip-path:url(#SVGID_20_);fill:#A6A8AB;}
	.st21{clip-path:url(#SVGID_22_);fill:#A6A8AB;}
	.st22{clip-path:url(#SVGID_22_);fill:#FFC10E;}
	.st23{fill:#FFC10E;}
	.st24{fill:#FF5F00;}
	.st25{fill:#EB001B;}
	.st26{fill:#F79E1B;}
	.st27{fill:#00589F;}
	.st28{fill:#F9A51A;}
</style>
<g>
	<g>
		<polygon class="st27" points="11.5,15.4 13.1,5.7 15.8,5.7 14.1,15.4 		"/>
		<path class="st27" d="M23.7,5.9c-0.5-0.2-1.3-0.4-2.4-0.4c-2.6,0-4.4,1.3-4.5,3.2c0,1.4,1.3,2.2,2.3,2.6c1,0.5,1.4,0.8,1.4,1.2
			c0,0.6-0.8,0.9-1.6,0.9c-1.1,0-1.6-0.1-2.5-0.5l-0.3-0.2L15.8,15c0.6,0.3,1.8,0.5,2.9,0.5c2.8,0,4.6-1.3,4.6-3.3
			c0-1.1-0.7-1.9-2.2-2.6c-0.9-0.4-1.5-0.7-1.5-1.2c0-0.4,0.5-0.8,1.5-0.8c0.9,0,1.5,0.2,2,0.4L23.3,8L23.7,5.9"/>
		<path class="st27" d="M30.5,5.7h-2c-0.6,0-1.1,0.2-1.4,0.8l-3.9,8.9h2.8c0,0,0.5-1.2,0.6-1.5c0.3,0,3,0,3.4,0
			c0.1,0.3,0.3,1.5,0.3,1.5h2.5L30.5,5.7 M27.2,11.9c0.2-0.6,1.1-2.7,1.1-2.7c0,0,0.2-0.6,0.4-0.9l0.2,0.8c0,0,0.5,2.3,0.6,2.8H27.2
			z"/>
		<path class="st27" d="M9.3,5.7l-2.6,6.6l-0.3-1.3c-0.5-1.5-2-3.2-3.7-4.1l2.4,8.5l2.8,0l4.2-9.7H9.3"/>
		<path class="st28" d="M4.3,5.7H0l0,0.2c3.3,0.8,5.5,2.7,6.4,5.1L5.5,6.5C5.3,5.9,4.9,5.7,4.3,5.7"/>
	</g>
</g>
</svg>
