<?xml version="1.0" encoding="utf-8"?>
<!-- Generator: Adobe Illustrator 19.2.1, SVG Export Plug-In . SVG Version: 6.00 Build 0)  -->
<svg version="1.1" id="Layer_1" xmlns="http://www.w3.org/2000/svg" xmlns:xlink="http://www.w3.org/1999/xlink" x="0px" y="0px"
	 viewBox="0 0 42.9 21" style="enable-background:new 0 0 42.9 21;" xml:space="preserve">
<style type="text/css">
	.st0{fill:#999999;}
	.st1{fill:#666666;}
	.st2{clip-path:url(#SVGID_2_);fill:#999999;}
	.st3{clip-path:url(#SVGID_4_);fill:#999999;}
	.st4{clip-path:url(#SVGID_4_);fill:#666666;}
	.st5{clip-path:url(#SVGID_6_);fill:#666666;}
	.st6{clip-path:url(#SVGID_8_);fill:#999999;}
	.st7{clip-path:url(#SVGID_10_);fill:#999999;}
	.st8{clip-path:url(#SVGID_12_);fill:#999999;}
	.st9{fill:#336699;}
	.st10{fill:#1C3663;}
	.st11{fill:#8BC53F;}
	.st12{fill:#FFFFFF;}
	.st13{clip-path:url(#SVGID_14_);fill:#FFFFFF;}
	.st14{clip-path:url(#SVGID_14_);fill:#C5C7C9;}
	.st15{clip-path:url(#SVGID_14_);fill:#231F20;}
	.st16{fill:#231F20;}
	.st17{clip-path:url(#SVGID_16_);fill:#231F20;}
	.st18{clip-path:url(#SVGID_18_);fill:#A6A8AB;}
	.st19{fill:#A6A8AB;}
	.st20{clip-path:url(#SVGID_20_);fill:#A6A8AB;}
	.st21{clip-path:url(#SVGID_22_);fill:#A6A8AB;}
	.st22{clip-path:url(#SVGID_22_);fill:#FFC10E;}
	.st23{fill:#FFC10E;}
	.st24{fill:#FF5F00;}
	.st25{fill:#EB001B;}
	.st26{fill:#F79E1B;}
	.st27{fill:#00589F;}
	.st28{fill:#F9A51A;}
</style>
<g>
	<path class="st9" d="M38.1,8.5C37.6,8.2,36.8,8,35.8,8c-0.5,0-1,0-1.6,0.1c-0.4,0.1-0.4,0.1-0.7,0.1C33,8.4,33,8.9,33,8.9l-0.2,0.6
		c-0.1,0.4,0.1,0.4,0.3,0.4c0.2-0.1,0.3-0.1,0.8-0.2c0.4-0.1,0.9-0.2,1.2-0.2c0.5,0,0.9,0.1,1.2,0.2c0.3,0.1,0.4,0.3,0.4,0.6
		c0,0.1,0,0.1,0,0.2c0,0.1-0.1,0.1-0.2,0.1c-0.7,0-1.3,0.1-1.9,0.2c-0.6,0.1-1.2,0.2-1.6,0.4c-0.5,0.2-0.9,0.5-1.1,0.9
		c-0.2,0.4-0.4,0.8-0.4,1.3c0,0.5,0.2,0.9,0.5,1.2c0.4,0.3,0.8,0.5,1.4,0.5c0.3,0,0.6,0,0.8-0.1c0.2,0,0.4-0.1,0.6-0.2
		c0.2-0.1,0.3-0.2,0.5-0.3c0.2-0.1,0.3-0.2,0.5-0.3l0,0l0,0.2c0,0,0,0,0,0l0,0c-0.1,0.2,0.1,0.5,0.3,0.5l0,0h0v0c0.2,0,0.7,0,1,0
		h0.2c0,0,0,0,0,0c0.3,0,0.5-0.2,0.6-0.5l0.9-4.1c0-0.1,0-0.2,0-0.3c0-0.1,0-0.2,0-0.3C38.8,9.2,38.5,8.7,38.1,8.5 M35.8,13.3
		c-0.2,0.1-0.3,0.2-0.5,0.3c-0.2,0.1-0.5,0.1-0.7,0.1c-0.3,0-0.6,0-0.7-0.1c-0.2-0.1-0.3-0.3-0.3-0.5c0-0.3,0.1-0.5,0.2-0.6
		c0.1-0.2,0.3-0.3,0.5-0.4c0.2-0.1,0.5-0.1,0.8-0.2c0.3,0,0.9-0.1,0.9-0.1c0.1,0,0.1,0,0.1,0.2c0,0.1-0.2,0.8-0.3,1.1
		C36,13.1,35.8,13.3,35.8,13.3"/>
	<path class="st10" d="M21.9,8.1c-0.3,0-0.6,0.2-0.8,0.5c0,0-1.8,3.2-2,3.5c-0.1,0.2-0.2,0.1-0.2,0c0-0.1-0.6-3.5-0.6-3.5
		c-0.1-0.3-0.3-0.5-0.7-0.5l-1.1,0c-0.3,0-0.4,0.2-0.4,0.5c0,0,0.9,5,1.1,6.2c0.1,0.6,0,0.8,0,0.8l-1.1,2c-0.2,0.3-0.1,0.5,0.2,0.5
		l1.3,0c0.3,0,0.6-0.2,0.8-0.5l5.1-8.7c0,0,0.5-0.7,0-0.7C23.1,8.1,21.9,8.1,21.9,8.1"/>
	<path class="st10" d="M5.7,9.9c-0.4,0.3-0.9,0.4-1.6,0.4H3.8c-0.3,0-0.5-0.2-0.4-0.5l0.4-1.7c0.1-0.3,0.3-0.5,0.6-0.5l0.4,0
		c0.5,0,0.9,0.1,1.1,0.3c0.2,0.2,0.4,0.4,0.4,0.8C6.3,9.2,6.1,9.6,5.7,9.9 M8.5,7.3C8.3,7,8.1,6.8,7.8,6.6C7.4,6.4,7.1,6.2,6.6,6.2
		C6.2,6.1,5.7,6,5.1,6L2.4,6C2.2,6,1.9,6.3,1.8,6.5L0,14.4c-0.1,0.3,0.1,0.5,0.4,0.5h1.3c0.3,0,0.6-0.2,0.6-0.5l0.4-1.9
		C2.8,12.2,3.1,12,3.4,12h0.4c1.6,0,2.8-0.3,3.7-1c0.9-0.6,1.3-1.5,1.3-2.6C8.7,8,8.6,7.6,8.5,7.3"/>
	<path class="st9" d="M29.1,9.9c-0.4,0.3-0.9,0.4-1.6,0.4h-0.3c-0.3,0-0.5-0.2-0.4-0.5l0.4-1.7c0.1-0.3,0.3-0.5,0.6-0.5l0.4,0
		c0.5,0,0.9,0.1,1.1,0.2c0.3,0.2,0.4,0.4,0.4,0.8C29.6,9.2,29.5,9.6,29.1,9.9 M31.8,7.4c-0.2-0.3-0.4-0.6-0.7-0.8
		c-0.3-0.2-0.7-0.3-1.1-0.4c-0.4-0.1-0.9-0.1-1.5-0.1l-2.7,0c-0.3,0-0.5,0.2-0.6,0.5l-1.8,7.9c-0.1,0.3,0.1,0.5,0.4,0.5l1.3,0
		c0.3,0,0.6-0.2,0.6-0.5l0.4-1.9c0.1-0.3,0.3-0.5,0.6-0.5h0.4c1.6,0,2.8-0.3,3.7-1c0.9-0.6,1.3-1.5,1.3-2.6
		C32.1,8.1,32,7.7,31.8,7.4"/>
	<path class="st10" d="M14.7,8.5C14.2,8.2,13.4,8,12.4,8c-0.5,0-1,0-1.6,0.1c-0.4,0.1-0.4,0.1-0.7,0.1C9.7,8.4,9.6,8.9,9.6,8.9
		L9.4,9.5C9.3,9.9,9.6,9.9,9.7,9.9c0.2-0.1,0.3-0.1,0.8-0.2c0.4-0.1,0.9-0.2,1.2-0.2c0.5,0,0.9,0.1,1.2,0.2c0.3,0.1,0.4,0.3,0.4,0.6
		c0,0.1,0,0.1,0,0.2c0,0.1-0.1,0.1-0.2,0.1c-0.7,0-1.3,0.1-1.9,0.2c-0.6,0.1-1.2,0.2-1.6,0.4c-0.5,0.2-0.9,0.5-1.1,0.9
		C8.1,12.4,8,12.9,8,13.4c0,0.5,0.2,0.9,0.5,1.2c0.4,0.3,0.8,0.5,1.4,0.5c0.3,0,0.6,0,0.8-0.1c0.2,0,0.4-0.1,0.6-0.2
		c0.2-0.1,0.3-0.2,0.5-0.3c0.2-0.1,0.3-0.2,0.5-0.3l0,0l0,0.2c0,0,0,0,0,0l0,0c-0.1,0.2,0.1,0.5,0.3,0.5l0,0h0l0,0c0.2,0,0.7,0,1,0
		h0.2c0,0,0,0,0,0c0.3,0,0.5-0.2,0.6-0.5l0.9-4.1c0-0.1,0-0.2,0-0.3c0-0.1,0-0.2,0-0.3C15.4,9.1,15.2,8.7,14.7,8.5 M12.4,13.3
		c-0.2,0.1-0.3,0.2-0.5,0.3c-0.2,0.1-0.5,0.1-0.7,0.1c-0.3,0-0.6,0-0.7-0.1c-0.2-0.1-0.3-0.3-0.3-0.5c0-0.3,0.1-0.5,0.2-0.6
		c0.1-0.2,0.3-0.3,0.5-0.4c0.2-0.1,0.5-0.1,0.8-0.2c0.3,0,0.9-0.1,0.9-0.1c0.1,0,0.1,0,0.1,0.2c0,0.1-0.2,0.8-0.3,1.1
		C12.6,13.1,12.5,13.3,12.4,13.3"/>
	<path class="st9" d="M42.5,6.1h-1.2c0,0,0,0,0,0c-0.3,0-0.5,0.2-0.6,0.5c0,0,0,0,0,0c0,0,0,0.1-0.1,0.3l-1.6,7.2
		c0,0.2-0.1,0.3-0.1,0.3l0,0c-0.1,0.3,0.1,0.5,0.3,0.5l0,0h1.2c0.3,0,0.5-0.2,0.6-0.5c0,0,0,0,0,0l1.7-7.8l0,0
		C42.9,6.4,42.8,6.1,42.5,6.1"/>
</g>
</svg>
