<?xml version="1.0" encoding="utf-8"?>
<!-- Generator: Adobe Illustrator 19.1.0, SVG Export Plug-In . SVG Version: 6.00 Build 0)  -->
<svg version="1.1" id="Layer_1" xmlns="http://www.w3.org/2000/svg" xmlns:xlink="http://www.w3.org/1999/xlink" x="0px" y="0px"
	 viewBox="0 0 671.7 216.4" style="enable-background:new 0 0 671.7 216.4;" xml:space="preserve">
<style type="text/css">
	.st0{fill:#FFFFFF;}
</style>
<g>
	<path class="st0" d="M488.7,86.7c3.6-4.1,6.3-7.6,9.7-10.6c6.9-6.5,15.1-10.2,24.4-11.4c9.3-1.1,18.5-0.6,27.3,3
		c8.3,3.4,14.3,9.4,18.6,17.2c1.5,2.7,1.6,2.7,3.4,0.4c12.6-16.4,29.4-22.7,49.8-20.5c7,0.7,13.4,2.8,19.3,6.5
		c10.8,6.7,15.9,16.8,16.5,29c0.6,11.2,0.1,22.5,0.1,33.7c0,14.2,0,28.5,0.2,42.7c0.1,5.7,0.8,11.5,0.7,17.2c-0.1,3.1-0.5,3.6-3.5,3
		c-7.2-1.5-14.4-1.5-21.6-0.1c-2.8,0.6-3.3,0.2-3.2-2.8c0.5-13.1,1.2-26.2,1.7-39.3c0.5-12.2,0.9-24.5,0.1-36.7
		c-0.4-5.7-0.5-11.5-1.6-17.1c-2.1-10.7-10.8-20.1-22.8-19.9c-6.3,0.1-12.4,0.2-18.1,3.6c-8.1,4.9-12.1,12.4-14.1,21.2
		c-3.3,14.7-2.6,29.5-2,44.4c0.3,6,0.5,12,0.7,18c0.3,8.4,0.3,16.7,1,25.1c0.3,3.6-0.6,4.1-4.2,3.5c-7.1-1.3-14.1-1.3-21.2,0
		c-2.7,0.5-3.3,0-3.2-2.9c0.1-4,0.4-8,0.7-12c1.4-21,0.9-42,0.6-63c-0.1-7.7-1-15.5-3.4-22.9c-3.1-9.2-10.5-14.6-20.3-14.9
		c-5.9-0.2-11.7-0.3-17.2,2.6c-8,4.3-12.2,11.3-14.8,19.4c-2,6.2-2.4,12.7-2.5,19.2c-0.3,18.4-0.2,36.7,0.2,55.1
		c0.1,5,0.6,10,1.2,14.9c0.5,4.5-0.1,5.3-4.5,4.3c-6.3-1.3-12.6-1.3-19,0c-4.5,0.9-5.3,0.4-5-4.1c1.3-15.2,1-30.5,1.3-45.7
		c0.4-21.5-0.3-43-0.8-64.5c-0.1-4.6-0.6-9.2-0.6-13.8c0-3.3,0.6-4.1,3.7-3.5c7,1.3,13.9,1.4,20.8,0c2.5-0.5,3,1.1,2.9,3.2
		c-0.3,5.4-0.7,10.7-1.1,16.1C488.8,84.9,488.8,85.4,488.7,86.7z"/>
	<path class="st0" d="M213.2,87.9c3.5-4.2,6.3-7.9,9.8-11.1c9.5-8.3,20.6-12,32.9-12.5c7.6-0.3,15.2,0.1,22.6,2.3
		c15.7,4.7,24.1,15.6,26.9,31.4c1,6.1,0.9,12.2,0.8,18.3c-0.2,10.7,0.1,21.5-0.4,32.2c-0.5,10.5-0.4,21-0.4,31.5
		c0,4.5,0.5,9,0.6,13.5c0.1,3.7-0.1,3.8-3.8,3.3c-7-1-13.9-1.2-20.9,0c-3.7,0.6-4.2,0.1-3.9-3.5c2.1-24.8,2.4-49.7,2-74.5
		c-0.1-6.9-1.4-13.6-3.8-20.2c-3.2-8.6-8.9-14.6-18.1-16.2c-10.6-1.9-20.9-1-30.1,5.6c-9,6.4-12.6,15.3-13.6,25.9
		c-1.5,16.4-1.8,32.9-1.4,49.4c0.3,10.3,1.1,20.7,1.8,31c0.2,2.5-0.6,3.3-2.9,2.9c-7.8-1.5-15.6-1.7-23.5-0.1
		c-2.3,0.5-2.8-0.8-2.8-2.7c0-6,0.7-12,1-18c0.8-16.1,1.3-32.2,1.4-48.3c0.1-19.9-0.6-39.7-1.3-59.6c-0.1-2.9,0.6-3.6,3.5-3.2
		c6.8,1,13.7,1,20.5,0c2.9-0.4,3.7,0.1,3.6,3.1C213.6,74.6,212.8,80.9,213.2,87.9z"/>
	<path class="st0" d="M415.1,174.8c-1.7,2.2-3.2,4.5-5.1,6.7c-9.2,10.9-20.8,17.1-35.2,18.2c-7.1,0.5-13.9-0.2-20.7-2.2
		c-14.1-4.1-22.6-13.6-26.7-27.4c-1.8-6-2.4-12.3-2.3-18.5c0.5-16.4,0.4-32.7,1.3-49.1c0.6-11.1-0.3-22.2-0.7-33.3
		c-0.1-4.3,0.1-4.4,4.4-3.8c6.2,0.9,12.5,0.8,18.7,0.1c4.2-0.5,4.5-0.5,4.3,3.9c-0.4,10.5-1.6,20.9-1.6,31.4
		c0,12.7-0.1,25.5-0.1,38.2c0,6.5,0.6,13,1.7,19.4c1,6.2,3.8,11.6,7.5,16.6c2.7,3.7,6.6,5.7,11.1,6.4c12.6,1.8,24.3,0.1,33.3-9.9
		c5.6-6.2,8.4-13.8,9.3-22.1c1.4-12.3,0.4-24.7,0.8-37.1c0.3-13.2-0.8-26.5-0.9-39.7c0-1.6-0.4-3.2-0.5-4.8c-0.1-2.1,0.8-3,3-2.7
		c7.6,1.3,15.1,1.4,22.7,0c2.1-0.4,3.1,0.7,2.9,2.7c-1.2,10.7-1.2,21.4-1.9,32.1c-0.4,5.7-0.3,11.5-0.3,17.2c0,19.9,0,39.7,0.1,59.6
		c0,5.6,0.9,11.2,0.7,16.8c-0.1,3.5-0.2,3.7-3.7,3.1c-6.5-1.1-12.9-1.1-19.4,0c-3.2,0.5-3.7,0-3.2-3.4c0.8-5.7,0.1-11.5,1.1-17.2
		C415.8,175.8,415.8,175.3,415.1,174.8z"/>
	<path class="st0" d="M69.5,181.3c14.2,0.2,28.5,0.1,42.6-2.2c0.4-0.1,0.7-0.1,1.1-0.1c4.2-0.3,4.7,0.2,3.9,4.3
		c-0.6,3.4-0.6,6.7,0,10c0.6,3.4,0,4.1-3.4,4c-12.2-0.4-24.4-1.1-36.7-1.2c-17.1-0.2-34.2-1-51.3,0.8c-3,0.3-6,0.2-9,0.4
		c-2.5,0.2-3.4-1-3.3-3.4c0.4-8.7,0.7-17.5,1.1-26.2c0.1-1.2,0.3-2.5,0.3-3.7c-0.2-23.5,1.5-47,0.7-70.4c-0.6-17-0.1-34-0.8-50.9
		c-0.4-9.5-0.5-19-1.1-28.4c-0.3-4.1,0.2-4.4,4.1-3.9c7.8,1.1,15.7,1,23.5,0c4.5-0.6,4.8-0.4,4.7,4.1c-0.5,21.7-1.2,43.4-1.7,65.2
		c-0.8,32.6-0.3,65.2-0.5,97.8c0,3.5,0.4,3.8,3.9,3.9C55,181.4,62.2,181.3,69.5,181.3z"/>
	<path class="st0" d="M138.1,128.7c0.6-18.3-0.8-36.5-1.5-54.7c-0.1-1.6-0.4-3.2-0.5-4.8c-0.1-2.1,0.7-3.4,3.1-2.9
		c7.2,1.3,14.4,1.3,21.6,0.1c3.3-0.6,3.4-0.3,3.3,3c-0.5,17.6-1.1,35.2-1.5,52.8c-0.5,21.5,1.1,43,1.5,64.5c0,2.5,0.5,5,0.5,7.5
		c0,2.7-0.9,3.2-3.6,2.7c-6.9-1.5-13.8-1.5-20.8,0c-2.9,0.6-3.6,0.2-3.5-3c0.3-10.7,0.4-21.5,1-32.2
		C138.3,150.7,137.7,139.7,138.1,128.7z"/>
	<path class="st0" d="M150.5,50.9c-8.2-0.1-14.8-6.9-14.7-15.2c0.1-7.9,6.2-15,15.2-14.7c9.1,0.2,14.9,7,15,15.1
		C166.1,44.5,159.2,51,150.5,50.9z"/>
</g>
</svg>
